Muli-Regular.ufo
<glyph name="numbersign" format="1">
  <advance width="1242"/>
  <unicode hex="0023"/>
  <outline>
    <contour>
      <point x="943" y="1010" type="line"/>
      <point x="1021" y="1420" type="line"/>
      <point x="875" y="1420" type="line"/>
      <point x="799" y="1010" type="line"/>
      <point x="538" y="1010" type="line"/>
      <point x="615" y="1420" type="line"/>
      <point x="469" y="1420" type="line"/>
      <point x="390" y="1010" type="line"/>
      <point x="120" y="1010" type="line"/>
      <point x="107" y="886" type="line"/>
      <point x="368" y="886" type="line"/>
      <point x="351" y="793"/>
      <point x="334" y="704"/>
      <point x="318" y="611" type="curve"/>
      <point x="53" y="611" type="line"/>
      <point x="42" y="485" type="line"/>
      <point x="294" y="485" type="line"/>
      <point x="210" y="60" type="line"/>
      <point x="356" y="60" type="line"/>
      <point x="438" y="485" type="line"/>
      <point x="699" y="485" type="line"/>
      <point x="619" y="60" type="line"/>
      <point x="764" y="60" type="line"/>
      <point x="847" y="485" type="line"/>
      <point x="1107" y="485" type="line"/>
      <point x="1121" y="611" type="line"/>
      <point x="869" y="611" type="line"/>
      <point x="920" y="886" type="line"/>
      <point x="1170" y="886" type="line"/>
      <point x="1184" y="1010" type="line"/>
    </contour>
    <contour>
      <point x="724" y="611" type="line"/>
      <point x="460" y="611" type="line"/>
      <point x="514" y="886" type="line"/>
      <point x="775" y="886" type="line"/>
    </contour>
  </outline>
</glyph>
<glyph name="dollar" format="1">
  <advance width="1190"/>
  <unicode hex="0024"/>
  <outline>
    <contour>
      <point x="532" y="818" type="line"/>
      <point x="413" y="864"/>
      <point x="326" y="923"/>
      <point x="326" y="1059" type="curve" smooth="yes"/>
      <point x="326" y="1182"/>
      <point x="410" y="1278"/>
      <point x="534" y="1293" type="curve"/>
    </contour>
    <contour>
      <point x="202" y="89" type="line"/>
      <point x="302" y="18"/>
      <point x="411" y="-13"/>
      <point x="532" y="-16" type="curve"/>
      <point x="536" y="-172" type="line"/>
      <point x="659" y="-172" type="line"/>
      <point x="656" y="-11" type="line"/>
      <point x="886" y="7"/>
      <point x="1080" y="140"/>
      <point x="1080" y="361" type="curve" smooth="yes"/>
      <point x="1080" y="574"/>
      <point x="935" y="660"/>
      <point x="656" y="770" type="curve"/>
      <point x="658" y="1299" type="line"/>
      <point x="770" y="1295"/>
      <point x="872" y="1266"/>
      <point x="948" y="1198" type="curve"/>
      <point x="997" y="1326" type="line"/>
      <point x="912" y="1397"/>
      <point x="790" y="1436"/>
      <point x="657" y="1439" type="curve"/>
      <point x="654" y="1575" type="line"/>
      <point x="530" y="1575" type="line"/>
      <point x="534" y="1437" type="line"/>
      <point x="330" y="1422"/>
      <point x="137" y="1257"/>
      <point x="137" y="1047" type="curve" smooth="yes"/>
      <point x="137" y="823"/>
      <point x="319" y="744"/>
      <point x="534" y="648" type="curve"/>
      <point x="531" y="127" type="line"/>
      <point x="437" y="131"/>
      <point x="336" y="166"/>
      <point x="251" y="223" type="curve"/>
    </contour>
    <contour>
      <point x="658" y="605" type="line"/>
      <point x="800" y="546"/>
      <point x="901" y="483"/>
      <point x="901" y="358" type="curve" smooth="yes"/>
      <point x="901" y="228"/>
      <point x="788" y="149"/>
      <point x="654" y="131" type="curve"/>
    </contour>
  </outline>
</glyph>
<glyph name="ampersand" format="1">
  <advance width="1647"/>
  <unicode hex="0026"/>
  <outline>
    <contour>
      <point x="115" y="402" type="curve" smooth="yes"/>
      <point x="115" y="131"/>
      <point x="350" y="-27"/>
      <point x="661" y="-27" type="curve" smooth="yes"/>
      <point x="884" y="-27"/>
      <point x="1046" y="68"/>
      <point x="1166" y="186" type="curve"/>
      <point x="1289" y="70"/>
      <point x="1360" y="6"/>
      <point x="1486" y="-12" type="curve"/>
      <point x="1618" y="86" type="line"/>
      <point x="1450" y="121"/>
      <point x="1379" y="161"/>
      <point x="1260" y="284" type="curve"/>
      <point x="1381" y="440"/>
      <point x="1455" y="660"/>
      <point x="1463" y="863" type="curve"/>
      <point x="1296" y="884" type="line"/>
      <point x="1296" y="717"/>
      <point x="1234" y="526"/>
      <point x="1144" y="398" type="curve"/>
      <point x="729" y="822" type="line"/>
      <point x="890" y="908"/>
      <point x="1036" y="1029"/>
      <point x="1036" y="1188" type="curve" smooth="yes"/>
      <point x="1036" y="1383"/>
      <point x="848" y="1473"/>
      <point x="661" y="1473" type="curve" smooth="yes"/>
      <point x="462" y="1473"/>
      <point x="299" y="1374"/>
      <point x="299" y="1182" type="curve" smooth="yes"/>
      <point x="299" y="1043"/>
      <point x="391" y="956"/>
      <point x="494" y="852" type="curve"/>
      <point x="303" y="750"/>
      <point x="115" y="625"/>
    </contour>
    <contour>
      <point x="1058" y="291" type="curve"/>
      <point x="957" y="193"/>
      <point x="840" y="116"/>
      <point x="658" y="116" type="curve" smooth="yes"/>
      <point x="445" y="116"/>
      <point x="295" y="239"/>
      <point x="295" y="406" type="curve" smooth="yes"/>
      <point x="295" y="578"/>
      <point x="441" y="674"/>
      <point x="594" y="750" type="curve"/>
      <point x="823" y="523" type="line" smooth="yes"/>
      <point x="938" y="409"/>
      <point x="1053" y="293"/>
    </contour>
    <contour>
      <point x="625" y="918" type="curve"/>
      <point x="534" y="1000"/>
      <point x="472" y="1077"/>
      <point x="472" y="1178" type="curve" smooth="yes"/>
      <point x="472" y="1286"/>
      <point x="561" y="1340"/>
      <point x="669" y="1340" type="curve" smooth="yes"/>
      <point x="762" y="1340"/>
      <point x="865" y="1294"/>
      <point x="865" y="1178" type="curve" smooth="yes"/>
      <point x="865" y="1064"/>
      <point x="746" y="983"/>
    </contour>
  </outline>
</glyph>
<glyph name="quotesingle" format="1">
  <advance width="554"/>
  <unicode hex="0027"/>
  <outline>
    <contour>
      <point x="342" y="989" type="line"/>
      <point x="360" y="1451" type="line"/>
      <point x="176" y="1451" type="line"/>
      <point x="212" y="989" type="line"/>
    </contour>
  </outline>
</glyph>
<glyph name="parenleft" format="1">
  <advance width="628"/>
  <unicode hex="0028"/>
  <outline>
    <contour>
      <point x="579" y="-259" type="line"/>
      <point x="419" y="-8"/>
      <point x="316" y="310"/>
      <point x="316" y="590" type="curve" smooth="yes"/>
      <point x="316" y="892"/>
      <point x="411" y="1185"/>
      <point x="578" y="1451" type="curve"/>
      <point x="430" y="1451" type="line"/>
      <point x="263" y="1187"/>
      <point x="153" y="906"/>
      <point x="153" y="587" type="curve" smooth="yes"/>
      <point x="153" y="281"/>
      <point x="278" y="-22"/>
      <point x="433" y="-259" type="curve"/>
    </contour>
  </outline>
</glyph>
<glyph name="parenright" format="1">
  <advance width="628"/>
  <unicode hex="0029"/>
  <outline>
    <contour>
      <point x="205" y="-259" type="line"/>
      <point x="367" y="-2"/>
      <point x="479" y="276"/>
      <point x="479" y="598" type="curve" smooth="yes"/>
      <point x="479" y="904"/>
      <point x="357" y="1206"/>
      <point x="199" y="1451" type="curve"/>
      <point x="52" y="1451" type="line"/>
      <point x="220" y="1187"/>
      <point x="315" y="871"/>
      <point x="315" y="604" type="curve" smooth="yes"/>
      <point x="315" y="283"/>
      <point x="208" y="-15"/>
      <point x="56" y="-259" type="curve"/>
    </contour>
  </outline>
</glyph>
<glyph name="asterisk" format="1">
  <advance width="1065"/>
  <unicode hex="002A"/>
  <outline>
    <contour>
      <point x="588" y="1451" type="line"/>
      <point x="439" y="1451" type="line"/>
      <point x="452" y="1351"/>
      <point x="467" y="1248"/>
      <point x="480" y="1148" type="curve"/>
      <point x="196" y="1271" type="line"/>
      <point x="175" y="1136" type="line"/>
      <point x="448" y="1058" type="line"/>
      <point x="257" y="820" type="line"/>
      <point x="381" y="745" type="line"/>
      <point x="534" y="1003" type="line"/>
      <point x="692" y="737" type="line"/>
      <point x="818" y="810" type="line"/>
      <point x="617" y="1061" type="line"/>
      <point x="880" y="1149" type="line"/>
      <point x="816" y="1274" type="line"/>
      <point x="581" y="1153" type="line"/>
    </contour>
  </outline>
</glyph>
<glyph name="plus" format="1">
  <advance width="1458"/>
  <unicode hex="002B"/>
  <outline>
    <contour>
      <point x="198" y="624" type="line"/>
      <point x="200" y="485" type="line"/>
      <point x="646" y="485" type="line"/>
      <point x="644" y="62" type="line"/>
      <point x="795" y="62" type="line"/>
      <point x="798" y="485" type="line"/>
      <point x="1246" y="485" type="line"/>
      <point x="1245" y="624" type="line"/>
      <point x="797" y="624" type="line"/>
      <point x="799" y="1047" type="line"/>
      <point x="649" y="1047" type="line"/>
      <point x="646" y="624" type="line"/>
    </contour>
  </outline>
</glyph>
<glyph name="one" format="1">
  <advance width="1190"/>
  <unicode hex="0031"/>
  <outline>
    <contour>
      <point x="273" y="1113" type="line"/>
      <point x="375" y="1153"/>
      <point x="463" y="1194"/>
      <point x="552" y="1245" type="curve"/>
      <point x="552" y="143" type="line"/>
      <point x="333" y="143" type="line"/>
      <point x="333" y="0" type="line"/>
      <point x="941" y="0" type="line"/>
      <point x="941" y="143" type="line"/>
      <point x="724" y="143" type="line"/>
      <point x="724" y="1438" type="line"/>
      <point x="559" y="1411" type="line"/>
      <point x="470" y="1356"/>
      <point x="375" y="1305"/>
      <point x="273" y="1269" type="curve"/>
    </contour>
  </outline>
</glyph>
<glyph name="three" format="1">
  <advance width="1190"/>
  <unicode hex="0033"/>
  <outline>
    <contour>
      <point x="385" y="670" type="line"/>
      <point x="408" y="671"/>
      <point x="439" y="672"/>
      <point x="462" y="672" type="curve" smooth="yes"/>
      <point x="714" y="672"/>
      <point x="871" y="595"/>
      <point x="871" y="394" type="curve" smooth="yes"/>
      <point x="871" y="222"/>
      <point x="719" y="119"/>
      <point x="528" y="119" type="curve" smooth="yes"/>
      <point x="373" y="119"/>
      <point x="241" y="192"/>
      <point x="191" y="324" type="curve"/>
      <point x="108" y="223" type="line"/>
      <point x="145" y="60"/>
      <point x="312" y="-23"/>
      <point x="519" y="-23" type="curve" smooth="yes"/>
      <point x="804" y="-23"/>
      <point x="1049" y="134"/>
      <point x="1049" y="391" type="curve" smooth="yes"/>
      <point x="1049" y="582"/>
      <point x="917" y="707"/>
      <point x="721" y="746" type="curve"/>
      <point x="894" y="794"/>
      <point x="1010" y="910"/>
      <point x="1010" y="1086" type="curve" smooth="yes"/>
      <point x="1010" y="1322"/>
      <point x="785" y="1449"/>
      <point x="550" y="1449" type="curve" smooth="yes"/>
      <point x="352" y="1449"/>
      <point x="181" y="1361"/>
      <point x="121" y="1217" type="curve"/>
      <point x="219" y="1128" type="line"/>
      <point x="289" y="1247"/>
      <point x="403" y="1306"/>
      <point x="544" y="1306" type="curve" smooth="yes"/>
      <point x="708" y="1306"/>
      <point x="826" y="1236"/>
      <point x="826" y="1085" type="curve" smooth="yes"/>
      <point x="826" y="880"/>
      <point x="681" y="813"/>
      <point x="446" y="813" type="curve" smooth="yes"/>
      <point x="427" y="813"/>
      <point x="403" y="813"/>
      <point x="383" y="814" type="curve"/>
    </contour>
  </outline>
</glyph>
<glyph name="six" format="1">
  <advance width="1190"/>
  <unicode hex="0036"/>
  <outline>
    <contour>
      <point x="999" y="1313" type="line"/>
      <point x="935" y="1404"/>
      <point x="819" y="1453"/>
      <point x="674" y="1453" type="curve" smooth="yes"/>
      <point x="294" y="1453"/>
      <point x="92" y="1102"/>
      <point x="92" y="678" type="curve" smooth="yes"/>
      <point x="92" y="262"/>
      <point x="263" y="-23"/>
      <point x="612" y="-23" type="curve" smooth="yes"/>
      <point x="908" y="-23"/>
      <point x="1098" y="183"/>
      <point x="1098" y="454" type="curve" smooth="yes"/>
      <point x="1098" y="736"/>
      <point x="921" y="914"/>
      <point x="645" y="914" type="curve" smooth="yes"/>
      <point x="482" y="914"/>
      <point x="344" y="856"/>
      <point x="272" y="724" type="curve"/>
      <point x="272" y="742"/>
      <point x="272" y="761"/>
      <point x="273" y="779" type="curve" smooth="yes"/>
      <point x="288" y="1055"/>
      <point x="414" y="1312"/>
      <point x="675" y="1312" type="curve" smooth="yes"/>
      <point x="786" y="1312"/>
      <point x="878" y="1273"/>
      <point x="944" y="1201" type="curve"/>
    </contour>
    <contour>
      <point x="620" y="778" type="curve" smooth="yes"/>
      <point x="824" y="778"/>
      <point x="920" y="634"/>
      <point x="920" y="448" type="curve" smooth="yes"/>
      <point x="920" y="261"/>
      <point x="801" y="119"/>
      <point x="614" y="119" type="curve" smooth="yes"/>
      <point x="397" y="119"/>
      <point x="290" y="302"/>
      <point x="290" y="501" type="curve" smooth="yes"/>
      <point x="290" y="663"/>
      <point x="442" y="778"/>
    </contour>
  </outline>
</glyph>
<glyph name="semicolon" format="1">
  <advance width="540"/>
  <unicode hex="003B"/>
  <outline>
    <contour>
      <point x="100" y="-256" type="line"/>
      <point x="231" y="-256" type="line"/>
      <point x="394" y="207" type="line"/>
      <point x="206" y="207" type="line"/>
    </contour>
    <contour>
      <point x="376" y="1051" type="line"/>
      <point x="159" y="1051" type="line"/>
      <point x="159" y="841" type="line"/>
      <point x="376" y="841" type="line"/>
    </contour>
  </outline>
</glyph>
<glyph name="equal" format="1">
  <advance width="1458"/>
  <unicode hex="003D"/>
  <outline>
    <contour>
      <point x="198" y="420" type="line"/>
      <point x="198" y="283" type="line"/>
      <point x="1247" y="283" type="line"/>
      <point x="1247" y="420" type="line"/>
    </contour>
    <contour>
      <point x="197" y="827" type="line"/>
      <point x="197" y="689" type="line"/>
      <point x="1246" y="689" type="line"/>
      <point x="1246" y="827" type="line"/>
    </contour>
  </outline>
</glyph>
<glyph name="greater" format="1">
  <advance width="1458"/>
  <unicode hex="003E"/>
  <outline>
    <contour>
      <point x="215" y="212" type="line"/>
      <point x="215" y="58" type="line"/>
      <point x="1225" y="505" type="line"/>
      <point x="1225" y="594" type="line"/>
      <point x="220" y="1078" type="line"/>
      <point x="220" y="926" type="line"/>
      <point x="1004" y="555" type="line"/>
    </contour>
  </outline>
</glyph>
<glyph name="A" format="1">
  <advance width="1425"/>
  <unicode hex="0041"/>
  <outline>
    <contour>
      <point x="1277" y="0" type="move" name="bot"/>
    </contour>
    <contour>
      <point x="355" y="397" type="line"/>
      <point x="1053" y="397" type="line"/>
      <point x="1216" y="0" type="line"/>
      <point x="1407" y="0" type="line"/>
      <point x="802" y="1456" type="line"/>
      <point x="617" y="1456" type="line"/>
      <point x="13" y="0" type="line"/>
      <point x="199" y="0" type="line"/>
    </contour>
    <contour>
      <point x="655" y="1149" type="line" smooth="yes"/>
      <point x="670" y="1186"/>
      <point x="707" y="1298"/>
      <point x="707" y="1298" type="curve"/>
      <point x="707" y="1298"/>
      <point x="741" y="1200"/>
      <point x="760" y="1150" type="curve" smooth="yes"/>
      <point x="994" y="545" type="line"/>
      <point x="410" y="545" type="line"/>
    </contour>
  </outline>
</glyph>
<glyph name="E" format="1">
  <advance width="1218"/>
  <unicode hex="0045"/>
  <outline>
    <contour>
      <point x="653" y="0" type="move" name="bot"/>
    </contour>
    <contour>
      <point x="1102" y="148" type="line"/>
      <point x="377" y="148" type="line"/>
      <point x="377" y="672" type="line"/>
      <point x="1034" y="672" type="line"/>
      <point x="1034" y="820" type="line"/>
      <point x="377" y="820" type="line"/>
      <point x="377" y="1308" type="line"/>
      <point x="1072" y="1308" type="line"/>
      <point x="1072" y="1456" type="line"/>
      <point x="205" y="1456" type="line"/>
      <point x="205" y="0" type="line"/>
      <point x="1102" y="0" type="line"/>
    </contour>
  </outline>
</glyph>
<glyph name="I" format="1">
  <advance width="591"/>
  <unicode hex="0049"/>
  <outline>
    <contour>
      <point x="296" y="0" type="move" name="bot"/>
    </contour>
    <contour>
      <point x="382" y="1456" type="line"/>
      <point x="210" y="1456" type="line"/>
      <point x="210" y="0" type="line"/>
      <point x="382" y="0" type="line"/>
    </contour>
  </outline>
</glyph>
<glyph name="J" format="1">
  <advance width="939"/>
  <unicode hex="004A"/>
  <outline>
    <contour>
      <point x="413" y="0" type="move" name="bot"/>
    </contour>
    <contour>
      <point x="71" y="81" type="line"/>
      <point x="136" y="16"/>
      <point x="218" y="-23"/>
      <point x="321" y="-23" type="curve" smooth="yes"/>
      <point x="592" y="-23"/>
      <point x="754" y="160"/>
      <point x="755" y="499" type="curve"/>
      <point x="755" y="1456" type="line"/>
      <point x="583" y="1456" type="line"/>
      <point x="583" y="488" type="line" smooth="yes"/>
      <point x="583" y="281"/>
      <point x="502" y="125"/>
      <point x="326" y="125" type="curve" smooth="yes"/>
      <point x="247" y="125"/>
      <point x="180" y="152"/>
      <point x="122" y="197" type="curve"/>
    </contour>
  </outline>
</glyph>
<glyph name="L" format="1">
  <advance width="1120"/>
  <unicode hex="004C"/>
  <outline>
    <contour>
      <point x="637" y="0" type="move" name="bot"/>
    </contour>
    <contour>
      <point x="1071" y="148" type="line"/>
      <point x="374" y="148" type="line"/>
      <point x="374" y="1456" type="line"/>
      <point x="202" y="1456" type="line"/>
      <point x="202" y="0" type="line"/>
      <point x="1073" y="0" type="line"/>
    </contour>
  </outline>
</glyph>
<glyph name="N" format="1">
  <advance width="1594"/>
  <unicode hex="004E"/>
  <outline>
    <contour>
      <point x="794" y="0" type="move" name="bot"/>
    </contour>
    <contour>
      <point x="365" y="0" type="line"/>
      <point x="365" y="1237" type="line"/>
      <point x="437" y="1113" type="line"/>
      <point x="1187" y="0" type="line"/>
      <point x="1395" y="0" type="line"/>
      <point x="1395" y="1456" type="line"/>
      <point x="1224" y="1456" type="line"/>
      <point x="1224" y="215" type="line"/>
      <point x="1146" y="342" type="line"/>
      <point x="399" y="1456" type="line"/>
      <point x="193" y="1456" type="line"/>
      <point x="193" y="0" type="line"/>
    </contour>
  </outline>
</glyph>
<glyph name="P" format="1">
  <advance width="1274"/>
  <unicode hex="0050"/>
  <outline>
    <contour>
      <point x="701" y="0" type="move" name="bot"/>
    </contour>
    <contour>
      <point x="375" y="587" type="line"/>
      <point x="597" y="587" type="line" smooth="yes"/>
      <point x="915" y="587"/>
      <point x="1200" y="716"/>
      <point x="1200" y="1020" type="curve" smooth="yes"/>
      <point x="1200" y="1379"/>
      <point x="884" y="1456"/>
      <point x="544" y="1456" type="curve" smooth="yes"/>
      <point x="203" y="1456" type="line"/>
      <point x="203" y="0" type="line"/>
      <point x="375" y="0" type="line"/>
    </contour>
    <contour>
      <point x="588" y="1308" type="line" smooth="yes"/>
      <point x="841" y="1308"/>
      <point x="1016" y="1251"/>
      <point x="1016" y="1018" type="curve" smooth="yes"/>
      <point x="1016" y="822"/>
      <point x="856" y="736"/>
      <point x="636" y="736" type="curve" smooth="yes"/>
      <point x="375" y="736" type="line"/>
      <point x="375" y="1308" type="line"/>
    </contour>
  </outline>
</glyph>
<glyph name="R" format="1">
  <advance width="1377"/>
  <unicode hex="0052"/>
  <outline>
    <contour>
      <point x="746" y="0" type="move" name="bot"/>
    </contour>
    <contour>
      <point x="647" y="652" type="line" smooth="yes"/>
      <point x="825" y="652"/>
      <point x="880" y="600"/>
      <point x="946" y="419" type="curve" smooth="yes"/>
      <point x="1099" y="0" type="line"/>
      <point x="1287" y="0" type="line"/>
      <point x="1200" y="214" type="line" smooth="yes"/>
      <point x="1080" y="510"/>
      <point x="1053" y="662"/>
      <point x="889" y="715" type="curve"/>
      <point x="888" y="715" type="line"/>
      <point x="1076" y="762"/>
      <point x="1199" y="890"/>
      <point x="1199" y="1074" type="curve" smooth="yes"/>
      <point x="1199" y="1452"/>
      <point x="799" y="1456"/>
      <point x="561" y="1456" type="curve" smooth="yes"/>
      <point x="205" y="1456" type="line"/>
      <point x="205" y="0" type="line"/>
      <point x="377" y="0" type="line"/>
      <point x="377" y="652" type="line"/>
    </contour>
    <contour>
      <point x="377" y="1308" type="line"/>
      <point x="654" y="1308" type="line" smooth="yes"/>
      <point x="861" y="1308"/>
      <point x="1017" y="1259"/>
      <point x="1017" y="1058" type="curve" smooth="yes"/>
      <point x="1017" y="854"/>
      <point x="823" y="799"/>
      <point x="643" y="799" type="curve" smooth="yes"/>
      <point x="377" y="799" type="line"/>
    </contour>
  </outline>
</glyph>
<glyph name="S" format="1">
  <advance width="1244"/>
  <unicode hex="0053"/>
  <outline>
    <contour>
      <point x="635" y="0" type="move" name="bot"/>
    </contour>
    <contour>
      <point x="137" y="161" type="line"/>
      <point x="215" y="50"/>
      <point x="377" y="-23"/>
      <point x="572" y="-23" type="curve" smooth="yes"/>
      <point x="841" y="-23"/>
      <point x="1134" y="78"/>
      <point x="1134" y="364" type="curve" smooth="yes"/>
      <point x="1134" y="841"/>
      <point x="324" y="763"/>
      <point x="324" y="1105" type="curve" smooth="yes"/>
      <point x="324" y="1270"/>
      <point x="505" y="1334"/>
      <point x="667" y="1334" type="curve" smooth="yes"/>
      <point x="786" y="1334"/>
      <point x="918" y="1306"/>
      <point x="998" y="1217" type="curve"/>
      <point x="1081" y="1329" type="line"/>
      <point x="996" y="1449"/>
      <point x="817" y="1483"/>
      <point x="666" y="1483" type="curve" smooth="yes"/>
      <point x="403" y="1483"/>
      <point x="141" y="1350"/>
      <point x="141" y="1095" type="curve" smooth="yes"/>
      <point x="141" y="619"/>
      <point x="950" y="716"/>
      <point x="950" y="365" type="curve" smooth="yes"/>
      <point x="950" y="209"/>
      <point x="801" y="125"/>
      <point x="591" y="125" type="curve" smooth="yes"/>
      <point x="459" y="125"/>
      <point x="303" y="165"/>
      <point x="215" y="271" type="curve"/>
    </contour>
  </outline>
</glyph>
<glyph name="U" format="1">
  <advance width="1532"/>
  <unicode hex="0055"/>
  <outline>
    <contour>
      <point x="764" y="0" type="move" name="bot"/>
    </contour>
    <contour>
      <point x="191" y="541" type="line" smooth="yes"/>
      <point x="191" y="207"/>
      <point x="339" y="-23"/>
      <point x="756" y="-23" type="curve" smooth="yes"/>
      <point x="1140" y="-23"/>
      <point x="1334" y="190"/>
      <point x="1336" y="551" type="curve" smooth="yes"/>
      <point x="1337" y="1456" type="line"/>
      <point x="1165" y="1456" type="line"/>
      <point x="1165" y="539" type="line" smooth="yes"/>
      <point x="1165" y="282"/>
      <point x="1006" y="125"/>
      <point x="763" y="125" type="curve" smooth="yes"/>
      <point x="501" y="125"/>
      <point x="363" y="275"/>
      <point x="363" y="546" type="curve" smooth="yes"/>
      <point x="363" y="1456" type="line"/>
      <point x="191" y="1456" type="line"/>
    </contour>
  </outline>
</glyph>
<glyph name="W" format="1">
  <advance width="2103"/>
  <unicode hex="0057"/>
  <outline>
    <contour>
      <point x="1050" y="0" type="move" name="bot"/>
    </contour>
    <contour>
      <point x="1445" y="0" type="line"/>
      <point x="1657" y="0" type="line"/>
      <point x="2080" y="1456" type="line"/>
      <point x="1900" y="1456" type="line"/>
      <point x="1589" y="332" type="line"/>
      <point x="1553" y="190" type="line"/>
      <point x="1507" y="345" type="line"/>
      <point x="1148" y="1456" type="line"/>
      <point x="967" y="1456" type="line"/>
      <point x="599" y="334" type="line"/>
      <point x="555" y="189" type="line"/>
      <point x="517" y="349" type="line"/>
      <point x="207" y="1456" type="line"/>
      <point x="21" y="1456" type="line"/>
      <point x="444" y="0" type="line"/>
      <point x="657" y="0" type="line"/>
      <point x="1052" y="1247" type="line"/>
    </contour>
  </outline>
</glyph>
<glyph name="X" format="1">
  <advance width="1304"/>
  <unicode hex="0058"/>
  <outline>
    <contour>
      <point x="648" y="0" type="move" name="bot"/>
    </contour>
    <contour>
      <point x="646" y="630" type="line"/>
      <point x="1072" y="0" type="line"/>
      <point x="1285" y="0" type="line"/>
      <point x="764" y="742" type="line"/>
      <point x="1275" y="1456" type="line"/>
      <point x="1079" y="1456" type="line"/>
      <point x="662" y="854" type="line"/>
      <point x="263" y="1456" type="line"/>
      <point x="47" y="1456" type="line"/>
      <point x="548" y="741" type="line"/>
      <point x="11" y="0" type="line"/>
      <point x="215" y="0" type="line"/>
    </contour>
  </outline>
</glyph>
<glyph name="Y" format="1">
  <advance width="1266"/>
  <unicode hex="0059"/>
  <outline>
    <contour>
      <point x="634" y="0" type="move" name="bot"/>
    </contour>
    <contour>
      <point x="715" y="0" type="line"/>
      <point x="715" y="585" type="line"/>
      <point x="1258" y="1456" type="line"/>
      <point x="1067" y="1456" type="line"/>
      <point x="632" y="727" type="line"/>
      <point x="201" y="1456" type="line"/>
      <point x="10" y="1456" type="line"/>
      <point x="543" y="582" type="line"/>
      <point x="543" y="0" type="line"/>
    </contour>
  </outline>
</glyph>
<glyph name="asciicircum" format="1">
  <advance width="1457"/>
  <unicode hex="005E"/>
  <outline>
    <contour>
      <point x="340" y="550" type="line"/>
      <point x="714" y="1260" type="line"/>
      <point x="1100" y="550" type="line"/>
      <point x="1255" y="550" type="line"/>
      <point x="766" y="1432" type="line"/>
      <point x="665" y="1432" type="line"/>
      <point x="184" y="550" type="line"/>
    </contour>
  </outline>
</glyph>
<glyph name="underscore" format="1">
  <advance width="998"/>
  <unicode hex="005F"/>
  <outline>
    <contour>
      <point x="997" y="-145" type="line"/>
      <point x="-5" y="-145" type="line"/>
      <point x="-4" y="-273" type="line"/>
      <point x="998" y="-273" type="line"/>
    </contour>
  </outline>
</glyph>
<glyph name="b" format="1">
  <advance width="1239"/>
  <unicode hex="0062"/>
  <outline>
    <contour>
      <point x="643" y="1026" type="move" name="top"/>
    </contour>
    <contour>
      <point x="643" y="0" type="move" name="bot"/>
    </contour>
    <contour>
      <point x="322" y="137" type="line"/>
      <point x="406" y="32"/>
      <point x="523" y="-23"/>
      <point x="668" y="-23" type="curve" smooth="yes"/>
      <point x="978" y="-23"/>
      <point x="1136" y="226"/>
      <point x="1136" y="525" type="curve" smooth="yes"/>
      <point x="1136" y="805"/>
      <point x="1005" y="1051"/>
      <point x="688" y="1051" type="curve" smooth="yes"/>
      <point x="539" y="1051"/>
      <point x="406" y="996"/>
      <point x="322" y="881" type="curve"/>
      <point x="322" y="1492" type="line"/>
      <point x="157" y="1492" type="line"/>
      <point x="157" y="270" type="line" smooth="yes"/>
      <point x="157" y="237"/>
      <point x="150" y="0"/>
      <point x="150" y="0" type="curve"/>
      <point x="318" y="0" type="line"/>
    </contour>
    <contour>
      <point x="969" y="550" type="curve" smooth="yes"/>
      <point x="969" y="340"/>
      <point x="888" y="135"/>
      <point x="647" y="135" type="curve" smooth="yes"/>
      <point x="405" y="135"/>
      <point x="322" y="284"/>
      <point x="322" y="515" type="curve" smooth="yes"/>
      <point x="322" y="729"/>
      <point x="433" y="917"/>
      <point x="650" y="917" type="curve" smooth="yes"/>
      <point x="847" y="917"/>
      <point x="969" y="753"/>
    </contour>
  </outline>
</glyph>
<glyph name="c" format="1">
  <advance width="1046"/>
  <unicode hex="0063"/>
  <outline>
    <contour>
      <point x="528" y="1026" type="move" name="top"/>
    </contour>
    <contour>
      <point x="528" y="0" type="move" name="bot"/>
    </contour>
    <contour>
      <point x="956" y="908" type="line"/>
      <point x="888" y="997"/>
      <point x="763" y="1051"/>
      <point x="602" y="1051" type="curve" smooth="yes"/>
      <point x="276" y="1051"/>
      <point x="92" y="803"/>
      <point x="92" y="503" type="curve" smooth="yes"/>
      <point x="92" y="214"/>
      <point x="264" y="-23"/>
      <point x="602" y="-23" type="curve" smooth="yes"/>
      <point x="747" y="-23"/>
      <point x="867" y="10"/>
      <point x="964" y="87" type="curve"/>
      <point x="918" y="225" type="line"/>
      <point x="829" y="148"/>
      <point x="729" y="109"/>
      <point x="615" y="109" type="curve" smooth="yes"/>
      <point x="375" y="109"/>
      <point x="265" y="283"/>
      <point x="265" y="508" type="curve" smooth="yes"/>
      <point x="265" y="734"/>
      <point x="397" y="917"/>
      <point x="617" y="917" type="curve" smooth="yes"/>
      <point x="721" y="917"/>
      <point x="818" y="880"/>
      <point x="881" y="801" type="curve"/>
    </contour>
  </outline>
</glyph>
<glyph name="f" format="1">
  <advance width="702"/>
  <unicode hex="0066"/>
  <outline>
    <contour>
      <point x="364" y="1026" type="move" name="top"/>
    </contour>
    <contour>
      <point x="364" y="0" type="move" name="bot"/>
    </contour>
    <contour>
      <point x="246" y="1026" type="line"/>
      <point x="45" y="1026" type="line"/>
      <point x="45" y="919" type="line"/>
      <point x="246" y="919" type="line"/>
      <point x="246" y="0" type="line"/>
      <point x="411" y="0" type="line"/>
      <point x="411" y="919" type="line"/>
      <point x="659" y="919" type="line"/>
      <point x="659" y="1026" type="line"/>
      <point x="411" y="1026" type="line"/>
      <point x="411" y="1163" type="line" smooth="yes"/>
      <point x="411" y="1324"/>
      <point x="413" y="1364"/>
      <point x="673" y="1364" type="curve"/>
      <point x="673" y="1492" type="line"/>
      <point x="281" y="1492"/>
      <point x="246" y="1396"/>
      <point x="246" y="1140" type="curve" smooth="yes"/>
    </contour>
  </outline>
</glyph>
<glyph name="h" format="1">
  <advance width="1217"/>
  <unicode hex="0068"/>
  <outline>
    <contour>
      <point x="611" y="1026" type="move" name="top"/>
    </contour>
    <contour>
      <point x="611" y="0" type="move" name="bot"/>
    </contour>
    <contour>
      <point x="169" y="1492" type="line"/>
      <point x="169" y="0" type="line"/>
      <point x="334" y="0" type="line"/>
      <point x="334" y="585" type="line" smooth="yes"/>
      <point x="334" y="765"/>
      <point x="445" y="917"/>
      <point x="633" y="917" type="curve" smooth="yes"/>
      <point x="829" y="917"/>
      <point x="889" y="796"/>
      <point x="889" y="626" type="curve" smooth="yes"/>
      <point x="889" y="0" type="line"/>
      <point x="1054" y="0" type="line"/>
      <point x="1054" y="636" type="line" smooth="yes"/>
      <point x="1054" y="838"/>
      <point x="978" y="1051"/>
      <point x="679" y="1051" type="curve" smooth="yes"/>
      <point x="528" y="1051"/>
      <point x="418" y="1002"/>
      <point x="334" y="890" type="curve"/>
      <point x="334" y="1492" type="line"/>
    </contour>
  </outline>
</glyph>
<glyph name="i" format="1">
  <advance width="503"/>
  <unicode hex="0069"/>
  <outline>
    <contour>
      <point x="249" y="1026" type="move" name="top"/>
    </contour>
    <contour>
      <point x="249" y="0" type="move" name="bot"/>
    </contour>
    <contour>
      <point x="175" y="1462" type="line"/>
      <point x="175" y="1307" type="line"/>
      <point x="328" y="1307" type="line"/>
      <point x="328" y="1462" type="line"/>
    </contour>
    <contour>
      <point x="167" y="0" type="line"/>
      <point x="332" y="0" type="line"/>
      <point x="332" y="1026" type="line"/>
      <point x="167" y="1026" type="line"/>
    </contour>
  </outline>
</glyph>
<glyph name="m" format="1">
  <advance width="1901"/>
  <unicode hex="006D"/>
  <outline>
    <contour>
      <point x="948" y="1026" type="move" name="top"/>
    </contour>
    <contour>
      <point x="948" y="0" type="move" name="bot"/>
    </contour>
    <contour>
      <point x="163" y="1026" type="line"/>
      <point x="167" y="943"/>
      <point x="169" y="849"/>
      <point x="169" y="761" type="curve" smooth="yes"/>
      <point x="169" y="0" type="line"/>
      <point x="334" y="0" type="line"/>
      <point x="334" y="587" type="line" smooth="yes"/>
      <point x="334" y="766"/>
      <point x="436" y="917"/>
      <point x="616" y="917" type="curve" smooth="yes"/>
      <point x="798" y="917"/>
      <point x="869" y="790"/>
      <point x="869" y="635" type="curve" smooth="yes"/>
      <point x="869" y="0" type="line"/>
      <point x="1034" y="0" type="line"/>
      <point x="1034" y="587" type="line" smooth="yes"/>
      <point x="1034" y="758"/>
      <point x="1138" y="917"/>
      <point x="1317" y="917" type="curve" smooth="yes"/>
      <point x="1544" y="917"/>
      <point x="1567" y="728"/>
      <point x="1568" y="558" type="curve" smooth="yes"/>
      <point x="1568" y="0" type="line"/>
      <point x="1733" y="0" type="line"/>
      <point x="1733" y="636" type="line" smooth="yes"/>
      <point x="1733" y="846"/>
      <point x="1657" y="1051"/>
      <point x="1366" y="1051" type="curve" smooth="yes"/>
      <point x="1191" y="1051"/>
      <point x="1071" y="988"/>
      <point x="994" y="849" type="curve"/>
      <point x="944" y="972"/>
      <point x="820" y="1051"/>
      <point x="665" y="1051" type="curve" smooth="yes"/>
      <point x="525" y="1051"/>
      <point x="413" y="999"/>
      <point x="334" y="888" type="curve"/>
      <point x="330" y="1026" type="line"/>
    </contour>
  </outline>
</glyph>
<glyph name="o" format="1">
  <advance width="1238"/>
  <unicode hex="006F"/>
  <outline>
    <contour>
      <point x="615" y="1026" type="move" name="top"/>
    </contour>
    <contour>
      <point x="615" y="0" type="move" name="bot"/>
    </contour>
    <contour>
      <point x="620" y="1051" type="curve" smooth="yes"/>
      <point x="279" y="1051"/>
      <point x="90" y="808"/>
      <point x="90" y="511" type="curve" smooth="yes"/>
      <point x="90" y="215"/>
      <point x="276" y="-23"/>
      <point x="616" y="-23" type="curve" smooth="yes"/>
      <point x="953" y="-23"/>
      <point x="1140" y="224"/>
      <point x="1140" y="513" type="curve" smooth="yes"/>
      <point x="1140" y="812"/>
      <point x="964" y="1051"/>
    </contour>
    <contour>
      <point x="966" y="511" type="curve" smooth="yes"/>
      <point x="966" y="298"/>
      <point x="854" y="109"/>
      <point x="620" y="109" type="curve" smooth="yes"/>
      <point x="383" y="109"/>
      <point x="263" y="297"/>
      <point x="263" y="509" type="curve" smooth="yes"/>
      <point x="263" y="723"/>
      <point x="384" y="917"/>
      <point x="616" y="917" type="curve" smooth="yes"/>
      <point x="856" y="917"/>
      <point x="966" y="731"/>
    </contour>
  </outline>
</glyph>
<glyph name="t" format="1">
  <advance width="729"/>
  <unicode hex="0074"/>
  <outline>
    <contour>
      <point x="355" y="1026" type="move" name="top"/>
    </contour>
    <contour>
      <point x="355" y="0" type="move" name="bot"/>
    </contour>
    <contour>
      <point x="243" y="352" type="line" smooth="yes"/>
      <point x="243" y="96"/>
      <point x="278" y="0"/>
      <point x="670" y="0" type="curve"/>
      <point x="670" y="128" type="line"/>
      <point x="410" y="128"/>
      <point x="408" y="168"/>
      <point x="408" y="329" type="curve" smooth="yes"/>
      <point x="408" y="919" type="line"/>
      <point x="664" y="919" type="line"/>
      <point x="664" y="1026" type="line"/>
      <point x="408" y="1026" type="line"/>
      <point x="408" y="1345" type="line"/>
      <point x="248" y="1298" type="line"/>
      <point x="248" y="1026" type="line"/>
      <point x="40" y="1026" type="line"/>
      <point x="40" y="919" type="line"/>
      <point x="243" y="919" type="line"/>
    </contour>
  </outline>
</glyph>
<glyph name="u" format="1">
  <advance width="1217"/>
  <unicode hex="0075"/>
  <outline>
    <contour>
      <point x="604" y="1026" type="move" name="top"/>
    </contour>
    <contour>
      <point x="604" y="0" type="move" name="bot"/>
    </contour>
    <contour>
      <point x="878" y="436" type="line" smooth="yes"/>
      <point x="878" y="259"/>
      <point x="769" y="109"/>
      <point x="578" y="109" type="curve" smooth="yes"/>
      <point x="402" y="109"/>
      <point x="321" y="209"/>
      <point x="322" y="399" type="curve" smooth="yes"/>
      <point x="322" y="1026" type="line"/>
      <point x="157" y="1026" type="line"/>
      <point x="157" y="399" type="line" smooth="yes"/>
      <point x="157" y="199"/>
      <point x="236" y="-23"/>
      <point x="540" y="-23" type="curve" smooth="yes"/>
      <point x="687" y="-23"/>
      <point x="801" y="30"/>
      <point x="878" y="135" type="curve"/>
      <point x="881" y="0" type="line"/>
      <point x="1051" y="0" type="line"/>
      <point x="1045" y="84"/>
      <point x="1043" y="158"/>
      <point x="1043" y="246" type="curve" smooth="yes"/>
      <point x="1043" y="1026" type="line"/>
      <point x="878" y="1026" type="line"/>
    </contour>
  </outline>
</glyph>
<glyph name="x" format="1">
  <advance width="1043"/>
  <unicode hex="0078"/>
  <outline>
    <contour>
      <point x="515" y="1026" type="move" name="top"/>
    </contour>
    <contour>
      <point x="515" y="0" type="move" name="bot"/>
    </contour>
    <contour>
      <point x="20" y="0" type="line"/>
      <point x="210" y="0" type="line"/>
      <point x="511" y="418" type="line"/>
      <point x="810" y="0" type="line"/>
      <point x="1011" y="0" type="line"/>
      <point x="620" y="518" type="line"/>
      <point x="998" y="1026" type="line"/>
      <point x="819" y="1026" type="line"/>
      <point x="526" y="614" type="line"/>
      <point x="242" y="1026" type="line"/>
      <point x="39" y="1026" type="line"/>
      <point x="420" y="514" type="line"/>
    </contour>
  </outline>
</glyph>
<glyph name="z" format="1">
  <advance width="958"/>
  <unicode hex="007A"/>
  <outline>
    <contour>
      <point x="478" y="1026" type="move" name="top"/>
    </contour>
    <contour>
      <point x="478" y="0" type="move" name="bot"/>
    </contour>
    <contour>
      <point x="58" y="0" type="line"/>
      <point x="898" y="0" type="line"/>
      <point x="896" y="134" type="line"/>
      <point x="283" y="134" type="line"/>
      <point x="881" y="939" type="line"/>
      <point x="881" y="1026" type="line"/>
      <point x="84" y="1026" type="line"/>
      <point x="84" y="891" type="line"/>
      <point x="658" y="891" type="line"/>
      <point x="58" y="89" type="line"/>
    </contour>
  </outline>
</glyph>
<glyph name="braceleft" format="1">
  <advance width="627"/>
  <unicode hex="007B"/>
  <outline>
    <contour>
      <point x="566" y="-133" type="line"/>
      <point x="441" y="-133"/>
      <point x="403" y="-80"/>
      <point x="403" y="107" type="curve" smooth="yes"/>
      <point x="403" y="174"/>
      <point x="405" y="260"/>
      <point x="405" y="325" type="curve"/>
      <point x="405" y="415"/>
      <point x="382" y="543"/>
      <point x="268" y="595" type="curve"/>
      <point x="326" y="627"/>
      <point x="407" y="711"/>
      <point x="408" y="868" type="curve" smooth="yes"/>
      <point x="409" y="1157" type="line" smooth="yes"/>
      <point x="409" y="1284"/>
      <point x="462" y="1322"/>
      <point x="566" y="1325" type="curve"/>
      <point x="566" y="1451" type="line"/>
      <point x="328" y="1451"/>
      <point x="243" y="1337"/>
      <point x="243" y="1143" type="curve"/>
      <point x="245" y="1059"/>
      <point x="245" y="974"/>
      <point x="247" y="890" type="curve"/>
      <point x="246" y="756"/>
      <point x="203" y="667"/>
      <point x="85" y="656" type="curve"/>
      <point x="86" y="534" type="line"/>
      <point x="240" y="517"/>
      <point x="244" y="398"/>
      <point x="244" y="274" type="curve" smooth="yes"/>
      <point x="243" y="11" type="line" smooth="yes"/>
      <point x="242" y="-181"/>
      <point x="380" y="-251"/>
      <point x="566" y="-259" type="curve"/>
    </contour>
  </outline>
</glyph>
<glyph name="braceright" format="1">
  <advance width="627"/>
  <unicode hex="007D"/>
  <outline>
    <contour>
      <point x="66" y="-259" type="line"/>
      <point x="252" y="-251"/>
      <point x="390" y="-181"/>
      <point x="389" y="11" type="curve" smooth="yes"/>
      <point x="388" y="274" type="line" smooth="yes"/>
      <point x="388" y="398"/>
      <point x="392" y="517"/>
      <point x="546" y="534" type="curve"/>
      <point x="547" y="656" type="line"/>
      <point x="429" y="667"/>
      <point x="386" y="756"/>
      <point x="385" y="890" type="curve"/>
      <point x="387" y="974"/>
      <point x="387" y="1059"/>
      <point x="389" y="1143" type="curve"/>
      <point x="389" y="1337"/>
      <point x="304" y="1451"/>
      <point x="66" y="1451" type="curve"/>
      <point x="66" y="1325" type="line"/>
      <point x="170" y="1322"/>
      <point x="223" y="1284"/>
      <point x="223" y="1157" type="curve" smooth="yes"/>
      <point x="224" y="868" type="line" smooth="yes"/>
      <point x="225" y="711"/>
      <point x="306" y="627"/>
      <point x="364" y="595" type="curve"/>
      <point x="250" y="543"/>
      <point x="227" y="415"/>
      <point x="227" y="325" type="curve" smooth="yes"/>
      <point x="227" y="260"/>
      <point x="229" y="174"/>
      <point x="229" y="107" type="curve" smooth="yes"/>
      <point x="229" y="-80"/>
      <point x="191" y="-133"/>
      <point x="66" y="-133" type="curve"/>
    </contour>
  </outline>
</glyph>
<glyph name="exclamdown" format="1">
  <advance width="737"/>
  <unicode hex="00A1"/>
  <outline>
    <contour>
      <point x="260" y="1090" type="line"/>
      <point x="474" y="1090" type="line"/>
      <point x="474" y="884" type="line"/>
      <point x="260" y="884" type="line"/>
    </contour>
    <contour>
      <point x="466" y="-384" type="line"/>
      <point x="271" y="-384" type="line"/>
      <point x="311" y="694" type="line"/>
      <point x="426" y="694" type="line"/>
    </contour>
  </outline>
</glyph>
<glyph name="dieresis" format="1">
  <advance width="743"/>
  <unicode hex="00A8"/>
  <outline>
    <contour>
      <point x="370" y="1026" type="move" name="_top"/>
    </contour>
    <contour>
      <point x="285" y="1346" type="line"/>
      <point x="121" y="1346" type="line"/>
      <point x="121" y="1183" type="line"/>
      <point x="285" y="1183" type="line"/>
    </contour>
    <contour>
      <point x="617" y="1346" type="line"/>
      <point x="453" y="1346" type="line"/>
      <point x="453" y="1183" type="line"/>
      <point x="617" y="1183" type="line"/>
    </contour>
  </outline>
</glyph>
<glyph name="copyright" format="1">
  <advance width="1829"/>
  <unicode hex="00A9"/>
  <outline>
    <contour>
      <point x="1210" y="460" type="line"/>
      <point x="1142" y="405"/>
      <point x="1060" y="380"/>
      <point x="972" y="380" type="curve" smooth="yes"/>
      <point x="735" y="380"/>
      <point x="613" y="537"/>
      <point x="613" y="733" type="curve" smooth="yes"/>
      <point x="613" y="926"/>
      <point x="740" y="1080"/>
      <point x="944" y="1080" type="curve" smooth="yes"/>
      <point x="1049" y="1080"/>
      <point x="1141" y="1048"/>
      <point x="1214" y="985" type="curve"/>
      <point x="1245" y="1105" type="line"/>
      <point x="1163" y="1174"/>
      <point x="1064" y="1208"/>
      <point x="951" y="1208" type="curve" smooth="yes"/>
      <point x="656" y="1208"/>
      <point x="460" y="1006"/>
      <point x="460" y="729" type="curve" smooth="yes"/>
      <point x="460" y="462"/>
      <point x="659" y="249"/>
      <point x="940" y="249" type="curve" smooth="yes"/>
      <point x="1059" y="249"/>
      <point x="1163" y="279"/>
      <point x="1249" y="339" type="curve"/>
    </contour>
    <contour>
      <point x="230" y="727" type="curve" smooth="yes"/>
      <point x="230" y="1088"/>
      <point x="527" y="1366"/>
      <point x="909" y="1366" type="curve" smooth="yes"/>
      <point x="1294" y="1366"/>
      <point x="1590" y="1087"/>
      <point x="1590" y="724" type="curve" smooth="yes"/>
      <point x="1590" y="365"/>
      <point x="1296" y="85"/>
      <point x="913" y="85" type="curve" smooth="yes"/>
      <point x="526" y="85"/>
      <point x="230" y="364"/>
    </contour>
    <contour>
      <point x="914" y="-32" type="curve" smooth="yes"/>
      <point x="1354" y="-32"/>
      <point x="1717" y="311"/>
      <point x="1717" y="725" type="curve" smooth="yes"/>
      <point x="1717" y="1137"/>
      <point x="1355" y="1483"/>
      <point x="908" y="1483" type="curve" smooth="yes"/>
      <point x="469" y="1483"/>
      <point x="103" y="1140"/>
      <point x="103" y="726" type="curve" smooth="yes"/>
      <point x="103" y="311"/>
      <point x="465" y="-32"/>
    </contour>
  </outline>
</glyph>
<glyph name="logicalnot" format="1">
  <advance width="1458"/>
  <unicode hex="00AC"/>
  <outline>
    <contour>
      <point x="1248" y="238" type="line"/>
      <point x="1248" y="798" type="line"/>
      <point x="200" y="798" type="line"/>
      <point x="200" y="659" type="line"/>
      <point x="1098" y="659" type="line"/>
      <point x="1098" y="238" type="line"/>
    </contour>
  </outline>
</glyph>
<glyph name="uni00AF" format="1">
  <advance width="850"/>
  <unicode hex="00AF"/>
  <outline>
    <contour>
      <point x="853" y="1510" type="line"/>
      <point x="-3" y="1510" type="line"/>
      <point x="-3" y="1380" type="line"/>
      <point x="853" y="1380" type="line"/>
    </contour>
  </outline>
</glyph>
<glyph name="degree" format="1">
  <advance width="844"/>
  <unicode hex="00B0"/>
  <outline>
    <contour>
      <point x="414" y="1328" type="curve" smooth="yes"/>
      <point x="519" y="1328"/>
      <point x="608" y="1252"/>
      <point x="608" y="1151" type="curve" smooth="yes"/>
      <point x="608" y="1050"/>
      <point x="522" y="971"/>
      <point x="414" y="971" type="curve" smooth="yes"/>
      <point x="306" y="971"/>
      <point x="220" y="1050"/>
      <point x="220" y="1151" type="curve" smooth="yes"/>
      <point x="220" y="1252"/>
      <point x="309" y="1328"/>
    </contour>
    <contour>
      <point x="414" y="855" type="curve" smooth="yes"/>
      <point x="586" y="855"/>
      <point x="733" y="988"/>
      <point x="733" y="1150" type="curve" smooth="yes"/>
      <point x="733" y="1312"/>
      <point x="587" y="1444"/>
      <point x="414" y="1444" type="curve" smooth="yes"/>
      <point x="241" y="1444"/>
      <point x="95" y="1312"/>
      <point x="95" y="1150" type="curve" smooth="yes"/>
      <point x="95" y="988"/>
      <point x="242" y="855"/>
    </contour>
  </outline>
</glyph>
<glyph name="plusminus" format="1">
  <advance width="1458"/>
  <unicode hex="00B1"/>
  <outline>
    <contour>
      <point x="1249" y="0" type="line"/>
      <point x="1249" y="138" type="line"/>
      <point x="200" y="138" type="line"/>
      <point x="200" y="0" type="line"/>
    </contour>
    <contour>
      <point x="188" y="733" type="line"/>
      <point x="188" y="595" type="line"/>
      <point x="647" y="595" type="line"/>
      <point x="647" y="223" type="line"/>
      <point x="798" y="223" type="line"/>
      <point x="798" y="595" type="line"/>
      <point x="1245" y="595" type="line"/>
      <point x="1245" y="733" type="line"/>
      <point x="794" y="733" type="line"/>
      <point x="794" y="1107" type="line"/>
      <point x="645" y="1107" type="line"/>
      <point x="645" y="733" type="line"/>
    </contour>
  </outline>
</glyph>
<glyph name="twosuperior" format="1">
  <advance width="1190"/>
  <unicode hex="00B2"/>
  <outline>
    <contour>
      <point x="829" y="604" type="line"/>
      <point x="829" y="722" type="line"/>
      <point x="465" y="722" type="line"/>
      <point x="669" y="897"/>
      <point x="830" y="1041"/>
      <point x="830" y="1213" type="curve" smooth="yes"/>
      <point x="830" y="1352"/>
      <point x="717" y="1440"/>
      <point x="567" y="1440" type="curve" smooth="yes"/>
      <point x="440" y="1440"/>
      <point x="337" y="1378"/>
      <point x="291" y="1270" type="curve"/>
      <point x="376" y="1192" type="line"/>
      <point x="414" y="1273"/>
      <point x="478" y="1323"/>
      <point x="561" y="1323" type="curve" smooth="yes"/>
      <point x="648" y="1323"/>
      <point x="701" y="1278"/>
      <point x="701" y="1211" type="curve" smooth="yes"/>
      <point x="701" y="1100"/>
      <point x="526" y="939"/>
      <point x="283" y="715" type="curve"/>
      <point x="283" y="604" type="line"/>
    </contour>
  </outline>
</glyph>
<glyph name="threesuperior" format="1">
  <advance width="1190"/>
  <unicode hex="00B3"/>
  <outline>
    <contour>
      <point x="293" y="1244" type="line"/>
      <point x="350" y="1291"/>
      <point x="414" y="1322"/>
      <point x="485" y="1322" type="curve" smooth="yes"/>
      <point x="567" y="1322"/>
      <point x="626" y="1288"/>
      <point x="626" y="1210" type="curve" smooth="yes"/>
      <point x="626" y="1119"/>
      <point x="544" y="1089"/>
      <point x="429" y="1089" type="curve"/>
      <point x="380" y="1089" type="line"/>
      <point x="380" y="970" type="line"/>
      <point x="380" y="970"/>
      <point x="431" y="971"/>
      <point x="436" y="971" type="curve" smooth="yes"/>
      <point x="568" y="971"/>
      <point x="651" y="935"/>
      <point x="651" y="837" type="curve" smooth="yes"/>
      <point x="651" y="751"/>
      <point x="572" y="701"/>
      <point x="476" y="701" type="curve" smooth="yes"/>
      <point x="413" y="701"/>
      <point x="350" y="728"/>
      <point x="295" y="779" type="curve"/>
      <point x="235" y="683" type="line"/>
      <point x="299" y="619"/>
      <point x="385" y="586"/>
      <point x="481" y="586" type="curve" smooth="yes"/>
      <point x="642" y="586"/>
      <point x="780" y="681"/>
      <point x="780" y="834" type="curve" smooth="yes"/>
      <point x="780" y="930"/>
      <point x="731" y="996"/>
      <point x="652" y="1032" type="curve"/>
      <point x="721" y="1069"/>
      <point x="759" y="1135"/>
      <point x="759" y="1213" type="curve" smooth="yes"/>
      <point x="759" y="1359"/>
      <point x="627" y="1441"/>
      <point x="487" y="1441" type="curve" smooth="yes"/>
      <point x="392" y="1441"/>
      <point x="296" y="1400"/>
      <point x="235" y="1340" type="curve"/>
    </contour>
  </outline>
</glyph>
<glyph name="acute" format="1">
  <advance width="607"/>
  <unicode hex="00B4"/>
  <outline>
    <contour>
      <point x="394" y="1026" type="move" name="_top"/>
    </contour>
    <contour>
      <point x="175" y="1172" type="line"/>
      <point x="305" y="1172" type="line"/>
      <point x="613" y="1492" type="line"/>
      <point x="401" y="1492" type="line"/>
    </contour>
  </outline>
</glyph>
<glyph name="paragraph" format="1">
  <advance width="1214"/>
  <unicode hex="00B6"/>
  <outline>
    <contour>
      <point x="585" y="-148" type="line"/>
      <point x="585" y="1327" type="line"/>
      <point x="793" y="1327" type="line"/>
      <point x="793" y="-148" type="line"/>
      <point x="922" y="-148" type="line"/>
      <point x="922" y="1327" type="line"/>
      <point x="1009" y="1327" type="line"/>
      <point x="1009" y="1451" type="line"/>
      <point x="623" y="1451" type="line" smooth="yes"/>
      <point x="346" y="1451"/>
      <point x="107" y="1381"/>
      <point x="107" y="1130" type="curve" smooth="yes"/>
      <point x="107" y="925"/>
      <point x="261" y="789"/>
      <point x="442" y="786" type="curve"/>
      <point x="442" y="-148" type="line"/>
    </contour>
  </outline>
</glyph>
<glyph name="middot" format="1">
  <advance width="444"/>
  <unicode hex="00B7"/>
  <outline>
    <contour>
      <point x="293" y="723" type="line"/>
      <point x="76" y="723" type="line"/>
      <point x="76" y="513" type="line"/>
      <point x="293" y="513" type="line"/>
    </contour>
  </outline>
</glyph>
<glyph name="onesuperior" format="1">
  <advance width="1190"/>
  <unicode hex="00B9"/>
  <outline>
    <contour>
      <point x="239" y="1203" type="line"/>
      <point x="292" y="1223"/>
      <point x="348" y="1248"/>
      <point x="391" y="1271" type="curve"/>
      <point x="391" y="1173"/>
      <point x="392" y="1095"/>
      <point x="392" y="723" type="curve"/>
      <point x="270" y="723" type="line"/>
      <point x="270" y="604" type="line"/>
      <point x="635" y="604" type="line"/>
      <point x="635" y="720" type="line"/>
      <point x="513" y="720" type="line"/>
      <point x="513" y="1427" type="line"/>
      <point x="408" y="1412" type="line"/>
      <point x="362" y="1384"/>
      <point x="310" y="1356"/>
      <point x="240" y="1333" type="curve"/>
    </contour>
  </outline>
</glyph>
<glyph name="AE" format="1">
  <advance width="2028"/>
  <unicode hex="00C6"/>
  <outline>
    <contour>
      <point x="994" y="1308" type="line"/>
      <point x="1054" y="546" type="line"/>
      <point x="506" y="546" type="line"/>
      <point x="944" y="1308" type="line"/>
    </contour>
    <contour>
      <point x="5" y="0" type="line"/>
      <point x="201" y="0" type="line"/>
      <point x="427" y="398" type="line"/>
      <point x="1073" y="398" type="line"/>
      <point x="1104" y="0" type="line"/>
      <point x="1901" y="0" type="line"/>
      <point x="1898" y="148" type="line"/>
      <point x="1257" y="148" type="line"/>
      <point x="1216" y="672" type="line"/>
      <point x="1837" y="672" type="line"/>
      <point x="1834" y="820" type="line"/>
      <point x="1197" y="820" type="line"/>
      <point x="1159" y="1308" type="line"/>
      <point x="1878" y="1308" type="line"/>
      <point x="1875" y="1456" type="line"/>
      <point x="836" y="1456" type="line"/>
    </contour>
  </outline>
</glyph>
<glyph name="multiply" format="1">
  <advance width="1458"/>
  <unicode hex="00D7"/>
  <outline>
    <contour>
      <point x="1122" y="850" type="line"/>
      <point x="1018" y="954" type="line"/>
      <point x="722" y="657" type="line"/>
      <point x="425" y="954" type="line"/>
      <point x="322" y="851" type="line"/>
      <point x="618" y="554" type="line"/>
      <point x="322" y="257" type="line"/>
      <point x="425" y="154" type="line"/>
      <point x="722" y="450" type="line"/>
      <point x="1018" y="154" type="line"/>
      <point x="1122" y="258" type="line"/>
      <point x="825" y="554" type="line"/>
    </contour>
  </outline>
</glyph>
<glyph name="Oslash" format="1">
  <advance width="1663"/>
  <unicode hex="00D8"/>
  <outline>
    <contour>
      <point x="605" y="-117" type="line"/>
      <point x="648" y="-5" type="line"/>
      <point x="704" y="-17"/>
      <point x="765" y="-23"/>
      <point x="829" y="-23" type="curve" smooth="yes"/>
      <point x="1278" y="-23"/>
      <point x="1544" y="286"/>
      <point x="1544" y="726" type="curve" smooth="yes"/>
      <point x="1544" y="1043"/>
      <point x="1414" y="1284"/>
      <point x="1189" y="1402" type="curve"/>
      <point x="1246" y="1549" type="line"/>
      <point x="1079" y="1549" type="line"/>
      <point x="1044" y="1458" type="line"/>
      <point x="980" y="1474"/>
      <point x="911" y="1483"/>
      <point x="837" y="1483" type="curve" smooth="yes"/>
      <point x="382" y="1483"/>
      <point x="114" y="1166"/>
      <point x="114" y="729" type="curve" smooth="yes"/>
      <point x="114" y="397"/>
      <point x="255" y="152"/>
      <point x="502" y="41" type="curve"/>
      <point x="442" y="-117" type="line"/>
    </contour>
    <contour>
      <point x="298" y="725" type="curve" smooth="yes"/>
      <point x="298" y="1048"/>
      <point x="482" y="1335"/>
      <point x="830" y="1335" type="curve" smooth="yes"/>
      <point x="888" y="1335"/>
      <point x="941" y="1328"/>
      <point x="989" y="1314" type="curve"/>
      <point x="559" y="191" type="line"/>
      <point x="386" y="290"/>
      <point x="298" y="490"/>
    </contour>
    <contour>
      <point x="1356" y="734" type="curve" smooth="yes"/>
      <point x="1356" y="387"/>
      <point x="1180" y="125"/>
      <point x="827" y="125" type="curve" smooth="yes"/>
      <point x="783" y="125"/>
      <point x="741" y="129"/>
      <point x="703" y="137" type="curve"/>
      <point x="1130" y="1249" type="line"/>
      <point x="1281" y="1145"/>
      <point x="1356" y="956"/>
    </contour>
  </outline>
</glyph>
<glyph name="germandbls" format="1">
  <advance width="1257"/>
  <unicode hex="00DF"/>
  <outline>
    <contour>
      <point x="471" y="138" type="line"/>
      <point x="559" y="26"/>
      <point x="677" y="-23"/>
      <point x="792" y="-23" type="curve" smooth="yes"/>
      <point x="987" y="-23"/>
      <point x="1173" y="120"/>
      <point x="1173" y="341" type="curve" smooth="yes"/>
      <point x="1173" y="604"/>
      <point x="938" y="733"/>
      <point x="722" y="798" type="curve" smooth="yes"/>
      <point x="702" y="804"/>
      <point x="693" y="810"/>
      <point x="693" y="816" type="curve" smooth="yes"/>
      <point x="693" y="824"/>
      <point x="704" y="831"/>
      <point x="719" y="838" type="curve" smooth="yes"/>
      <point x="819" y="884"/>
      <point x="1011" y="1023"/>
      <point x="1011" y="1192" type="curve" smooth="yes"/>
      <point x="1011" y="1367"/>
      <point x="859" y="1511"/>
      <point x="604" y="1511" type="curve" smooth="yes"/>
      <point x="331" y="1511"/>
      <point x="173" y="1337"/>
      <point x="174" y="1071" type="curve" smooth="yes"/>
      <point x="176" y="0" type="line"/>
      <point x="341" y="0" type="line"/>
      <point x="341" y="257"/>
      <point x="337" y="779"/>
      <point x="337" y="1038" type="curve" smooth="yes"/>
      <point x="337" y="1226"/>
      <point x="416" y="1382"/>
      <point x="603" y="1382" type="curve" smooth="yes"/>
      <point x="735" y="1382"/>
      <point x="823" y="1310"/>
      <point x="823" y="1191" type="curve" smooth="yes"/>
      <point x="823" y="1056"/>
      <point x="711" y="947"/>
      <point x="588" y="892" type="curve"/>
      <point x="572" y="756" type="line"/>
      <point x="782" y="636"/>
      <point x="986" y="525"/>
      <point x="986" y="322" type="curve" smooth="yes"/>
      <point x="986" y="185"/>
      <point x="896" y="109"/>
      <point x="788" y="109" type="curve" smooth="yes"/>
      <point x="708" y="109"/>
      <point x="614" y="151"/>
      <point x="536" y="243" type="curve"/>
    </contour>
  </outline>
</glyph>
<glyph name="ae" format="1">
  <advance width="1807"/>
  <unicode hex="00E6"/>
  <outline>
    <contour>
      <point x="238" y="763" type="line"/>
      <point x="304" y="876"/>
      <point x="414" y="917"/>
      <point x="540" y="917" type="curve" smooth="yes"/>
      <point x="712" y="917"/>
      <point x="771" y="782"/>
      <point x="771" y="628" type="curve" smooth="yes"/>
      <point x="771" y="615" type="line"/>
      <point x="410" y="615"/>
      <point x="81" y="594"/>
      <point x="81" y="282" type="curve" smooth="yes"/>
      <point x="81" y="90"/>
      <point x="230" y="-28"/>
      <point x="441" y="-28" type="curve" smooth="yes"/>
      <point x="617" y="-28"/>
      <point x="768" y="59"/>
      <point x="854" y="197" type="curve"/>
      <point x="928" y="54"/>
      <point x="1071" y="-25"/>
      <point x="1232" y="-25" type="curve" smooth="yes"/>
      <point x="1425" y="-25"/>
      <point x="1575" y="54"/>
      <point x="1664" y="206" type="curve"/>
      <point x="1577" y="292" type="line"/>
      <point x="1501" y="180"/>
      <point x="1379" y="113"/>
      <point x="1242" y="113" type="curve" smooth="yes"/>
      <point x="1007" y="113"/>
      <point x="941" y="285"/>
      <point x="941" y="463" type="curve" smooth="yes"/>
      <point x="941" y="468"/>
      <point x="942" y="475"/>
      <point x="942" y="479" type="curve"/>
      <point x="1697" y="479" type="line"/>
      <point x="1697" y="524" type="line" smooth="yes"/>
      <point x="1697" y="839"/>
      <point x="1553" y="1053"/>
      <point x="1231" y="1053" type="curve" smooth="yes"/>
      <point x="1086" y="1053"/>
      <point x="953" y="987"/>
      <point x="878" y="856" type="curve"/>
      <point x="844" y="992"/>
      <point x="672" y="1053"/>
      <point x="550" y="1053" type="curve" smooth="yes"/>
      <point x="372" y="1053"/>
      <point x="223" y="996"/>
      <point x="148" y="856" type="curve"/>
    </contour>
    <contour>
      <point x="773" y="479" type="line"/>
      <point x="773" y="284"/>
      <point x="707" y="109"/>
      <point x="474" y="109" type="curve" smooth="yes"/>
      <point x="356" y="109"/>
      <point x="250" y="159"/>
      <point x="250" y="290" type="curve" smooth="yes"/>
      <point x="250" y="453"/>
      <point x="431" y="472"/>
      <point x="627" y="476" type="curve" smooth="yes"/>
    </contour>
    <contour>
      <point x="943" y="616" type="line"/>
      <point x="957" y="776"/>
      <point x="1066" y="917"/>
      <point x="1250" y="917" type="curve" smooth="yes"/>
      <point x="1429" y="917"/>
      <point x="1507" y="798"/>
      <point x="1523" y="626" type="curve" smooth="yes"/>
      <point x="1524" y="616" type="line"/>
    </contour>
  </outline>
</glyph>
<glyph name="thorn" format="1">
  <advance width="1239"/>
  <unicode hex="00FE"/>
  <outline>
    <contour>
      <point x="323" y="135" type="line"/>
      <point x="408" y="31"/>
      <point x="524" y="-23"/>
      <point x="668" y="-23" type="curve" smooth="yes"/>
      <point x="983" y="-23"/>
      <point x="1139" y="239"/>
      <point x="1139" y="527" type="curve" smooth="yes"/>
      <point x="1139" y="812"/>
      <point x="990" y="1051"/>
      <point x="668" y="1051" type="curve" smooth="yes"/>
      <point x="530" y="1051"/>
      <point x="408" y="993"/>
      <point x="325" y="882" type="curve"/>
      <point x="325" y="1455" type="line"/>
      <point x="158" y="1455" type="line"/>
      <point x="158" y="917" type="line"/>
      <point x="158" y="-427" type="line"/>
      <point x="323" y="-427" type="line"/>
    </contour>
    <contour>
      <point x="323" y="494" type="curve" smooth="yes"/>
      <point x="323" y="715"/>
      <point x="405" y="917"/>
      <point x="650" y="917" type="curve" smooth="yes"/>
      <point x="885" y="917"/>
      <point x="963" y="725"/>
      <point x="963" y="521" type="curve" smooth="yes"/>
      <point x="963" y="304"/>
      <point x="868" y="109"/>
      <point x="644" y="109" type="curve" smooth="yes"/>
      <point x="435" y="109"/>
      <point x="323" y="273"/>
    </contour>
  </outline>
</glyph>
<glyph name="oe" format="1">
  <advance width="1970"/>
  <unicode hex="0153"/>
  <outline>
    <contour>
      <point x="1868" y="472" type="line"/>
      <point x="1868" y="525" type="line" smooth="yes"/>
      <point x="1868" y="842"/>
      <point x="1711" y="1053"/>
      <point x="1417" y="1053" type="curve" smooth="yes"/>
      <point x="1234" y="1053"/>
      <point x="1100" y="974"/>
      <point x="1027" y="821" type="curve"/>
      <point x="947" y="973"/>
      <point x="816" y="1053"/>
      <point x="620" y="1053" type="curve" smooth="yes"/>
      <point x="284" y="1053"/>
      <point x="92" y="806"/>
      <point x="92" y="509" type="curve" smooth="yes"/>
      <point x="92" y="212"/>
      <point x="282" y="-28"/>
      <point x="610" y="-28" type="curve" smooth="yes"/>
      <point x="797" y="-28"/>
      <point x="956" y="43"/>
      <point x="1022" y="209" type="curve"/>
      <point x="1087" y="49"/>
      <point x="1229" y="-28"/>
      <point x="1410" y="-28" type="curve" smooth="yes"/>
      <point x="1591" y="-28"/>
      <point x="1747" y="45"/>
      <point x="1836" y="206" type="curve"/>
      <point x="1748" y="292" type="line"/>
      <point x="1678" y="180"/>
      <point x="1558" y="109"/>
      <point x="1421" y="109" type="curve" smooth="yes"/>
      <point x="1221" y="109"/>
      <point x="1119" y="255"/>
      <point x="1113" y="450" type="curve"/>
      <point x="1113" y="470" type="line"/>
    </contour>
    <contour>
      <point x="1113" y="609" type="line"/>
      <point x="1124" y="770"/>
      <point x="1239" y="917"/>
      <point x="1423" y="917" type="curve" smooth="yes"/>
      <point x="1596" y="917"/>
      <point x="1686" y="801"/>
      <point x="1694" y="639" type="curve" smooth="yes"/>
      <point x="1694" y="629"/>
      <point x="1695" y="619"/>
      <point x="1695" y="609" type="curve"/>
    </contour>
    <contour>
      <point x="945" y="511" type="curve" smooth="yes"/>
      <point x="945" y="299"/>
      <point x="845" y="109"/>
      <point x="620" y="109" type="curve" smooth="yes"/>
      <point x="378" y="109"/>
      <point x="265" y="292"/>
      <point x="265" y="507" type="curve" smooth="yes"/>
      <point x="265" y="725"/>
      <point x="386" y="917"/>
      <point x="612" y="917" type="curve" smooth="yes"/>
      <point x="844" y="917"/>
      <point x="945" y="741"/>
    </contour>
  </outline>
</glyph>
<glyph name="florin" format="1">
  <advance width="1190"/>
  <unicode hex="0192"/>
  <outline>
    <contour>
      <point x="487" y="803" type="line"/>
      <point x="436" y="541"/>
      <point x="398" y="262"/>
      <point x="334" y="7" type="curve" smooth="yes"/>
      <point x="307" y="-102"/>
      <point x="261" y="-194"/>
      <point x="163" y="-194" type="curve" smooth="yes"/>
      <point x="141" y="-194"/>
      <point x="115" y="-189"/>
      <point x="85" y="-178" type="curve"/>
      <point x="73" y="-316" type="line"/>
      <point x="114" y="-327"/>
      <point x="149" y="-332"/>
      <point x="177" y="-332" type="curve" smooth="yes"/>
      <point x="422" y="-332"/>
      <point x="488" y="-118"/>
      <point x="532" y="120" type="curve" smooth="yes"/>
      <point x="659" y="803" type="line"/>
      <point x="872" y="803" type="line"/>
      <point x="882" y="943" type="line"/>
      <point x="682" y="943" type="line"/>
      <point x="718" y="1139" type="line" smooth="yes"/>
      <point x="736" y="1238"/>
      <point x="775" y="1294"/>
      <point x="891" y="1294" type="curve" smooth="yes"/>
      <point x="922" y="1294"/>
      <point x="960" y="1288"/>
      <point x="1000" y="1272" type="curve"/>
      <point x="1008" y="1417" type="line"/>
      <point x="959" y="1429"/>
      <point x="909" y="1436"/>
      <point x="865" y="1436" type="curve" smooth="yes"/>
      <point x="632" y="1436"/>
      <point x="558" y="1273"/>
      <point x="534" y="1094" type="curve" smooth="yes"/>
      <point x="511" y="943" type="line"/>
      <point x="342" y="943" type="line"/>
      <point x="332" y="803" type="line"/>
    </contour>
  </outline>
</glyph>
<glyph name="dotlessj" format="1">
  <advance width="503"/>
  <unicode hex="0237"/>
  <outline>
    <contour>
      <point x="-101" y="-416" type="line"/>
      <point x="-57" y="-425"/>
      <point x="-16" y="-429"/>
      <point x="21" y="-429" type="curve" smooth="yes"/>
      <point x="314" y="-429"/>
      <point x="342" y="-119"/>
      <point x="340" y="106" type="curve" smooth="yes"/>
      <point x="340" y="1026" type="line"/>
      <point x="175" y="1026" type="line"/>
      <point x="175" y="31" type="line" smooth="yes"/>
      <point x="175" y="-186"/>
      <point x="112" y="-283"/>
      <point x="-18" y="-283" type="curve" smooth="yes"/>
      <point x="-39" y="-283"/>
      <point x="-66" y="-280"/>
      <point x="-102" y="-273" type="curve"/>
    </contour>
  </outline>
</glyph>
<glyph name="caron" format="1">
  <advance width="699"/>
  <unicode hex="02C7"/>
  <outline>
    <contour>
      <point x="508" y="1493" type="line"/>
      <point x="340" y="1278" type="line"/>
      <point x="176" y="1493" type="line"/>
      <point x="29" y="1493" type="line"/>
      <point x="268" y="1170" type="line"/>
      <point x="424" y="1170" type="line"/>
      <point x="662" y="1493" type="line"/>
    </contour>
  </outline>
</glyph>
<glyph name="dotaccent" format="1">
  <advance width="524"/>
  <unicode hex="02D9"/>
  <outline>
    <contour>
      <point x="264" y="1026" type="move" name="_top"/>
    </contour>
    <contour>
      <point x="344" y="1246" type="line"/>
      <point x="341" y="1409" type="line"/>
      <point x="184" y="1409" type="line"/>
      <point x="186" y="1246" type="line"/>
    </contour>
  </outline>
</glyph>
<glyph name="ring" format="1">
  <advance width="605"/>
  <unicode hex="02DA"/>
  <outline>
    <contour>
      <point x="300" y="1026" type="move" name="_top"/>
    </contour>
    <contour>
      <point x="410" y="1340" type="curve" smooth="yes"/>
      <point x="410" y="1283"/>
      <point x="357" y="1235"/>
      <point x="299" y="1235" type="curve" smooth="yes"/>
      <point x="231" y="1235"/>
      <point x="189" y="1279"/>
      <point x="189" y="1340" type="curve" smooth="yes"/>
      <point x="189" y="1397"/>
      <point x="241" y="1445"/>
      <point x="299" y="1445" type="curve" smooth="yes"/>
      <point x="361" y="1445"/>
      <point x="410" y="1398"/>
    </contour>
    <contour>
      <point x="90" y="1339" type="curve" smooth="yes"/>
      <point x="90" y="1232"/>
      <point x="184" y="1149"/>
      <point x="301" y="1149" type="curve" smooth="yes"/>
      <point x="414" y="1149"/>
      <point x="510" y="1234"/>
      <point x="510" y="1340" type="curve" smooth="yes"/>
      <point x="510" y="1445"/>
      <point x="418" y="1530"/>
      <point x="300" y="1530" type="curve" smooth="yes"/>
      <point x="185" y="1530"/>
      <point x="90" y="1449"/>
    </contour>
  </outline>
</glyph>
<glyph name="ogonek" format="1">
  <advance width="508"/>
  <unicode hex="02DB"/>
  <outline>
    <contour>
      <point x="245" y="0" type="move" name="_bot"/>
    </contour>
    <contour>
      <point x="289" y="-281" type="curve" smooth="yes"/>
      <point x="241" y="-281"/>
      <point x="189" y="-249"/>
      <point x="189" y="-199" type="curve" smooth="yes"/>
      <point x="189" y="-136"/>
      <point x="275" y="-71"/>
      <point x="392" y="0" type="curve"/>
      <point x="263" y="12" type="line"/>
      <point x="154" y="-42"/>
      <point x="48" y="-123"/>
      <point x="48" y="-225" type="curve" smooth="yes"/>
      <point x="48" y="-331"/>
      <point x="144" y="-390"/>
      <point x="266" y="-390" type="curve" smooth="yes"/>
      <point x="326" y="-390"/>
      <point x="403" y="-377"/>
      <point x="443" y="-361" type="curve"/>
      <point x="443" y="-250" type="line"/>
      <point x="388" y="-271"/>
      <point x="350" y="-281"/>
    </contour>
  </outline>
</glyph>
<glyph name="tilde" format="1">
  <advance width="663"/>
  <unicode hex="02DC"/>
  <outline>
    <contour>
      <point x="336" y="1026" type="move" name="_top"/>
    </contour>
    <contour>
      <point x="550" y="1435" type="line"/>
      <point x="542" y="1376"/>
      <point x="508" y="1345"/>
      <point x="463" y="1345" type="curve" smooth="yes"/>
      <point x="386" y="1345"/>
      <point x="306" y="1413"/>
      <point x="213" y="1413" type="curve" smooth="yes"/>
      <point x="101" y="1413"/>
      <point x="25" y="1328"/>
      <point x="14" y="1203" type="curve"/>
      <point x="119" y="1203" type="line"/>
      <point x="126" y="1260"/>
      <point x="157" y="1288"/>
      <point x="210" y="1288" type="curve" smooth="yes"/>
      <point x="285" y="1288"/>
      <point x="384" y="1220"/>
      <point x="463" y="1220" type="curve" smooth="yes"/>
      <point x="578" y="1220"/>
      <point x="646" y="1315"/>
      <point x="658" y="1435" type="curve"/>
    </contour>
  </outline>
</glyph>
<glyph name="hungarumlaut" format="1">
  <advance width="969"/>
  <unicode hex="02DD"/>
  <outline>
    <contour>
      <point x="493" y="1026" type="move" name="_top"/>
    </contour>
    <contour>
      <point x="549" y="1174" type="line"/>
      <point x="825" y="1487" type="line"/>
      <point x="649" y="1487" type="line"/>
      <point x="429" y="1174" type="line"/>
    </contour>
    <contour>
      <point x="280" y="1174" type="line"/>
      <point x="555" y="1487" type="line"/>
      <point x="379" y="1487" type="line"/>
      <point x="162" y="1174" type="line"/>
    </contour>
  </outline>
</glyph>
<glyph name="uni030F" format="1">
  <advance width="969"/>
  <unicode hex="030F"/>
  <outline>
    <contour>
      <point x="493" y="1026" type="move" name="_top"/>
    </contour>
    <contour>
      <point x="438" y="1174" type="line"/>
      <point x="162" y="1487" type="line"/>
      <point x="338" y="1487" type="line"/>
      <point x="558" y="1174" type="line"/>
    </contour>
    <contour>
      <point x="707" y="1174" type="line"/>
      <point x="432" y="1487" type="line"/>
      <point x="608" y="1487" type="line"/>
      <point x="825" y="1174" type="line"/>
    </contour>
  </outline>
</glyph>
<glyph name="uni0326" format="1">
  <advance width="540"/>
  <unicode hex="0326"/>
  <outline>
    <contour>
      <point x="78" y="-625" type="line"/>
      <point x="209" y="-625" type="line"/>
      <point x="372" y="-162" type="line"/>
      <point x="185" y="-162" type="line"/>
    </contour>
  </outline>
</glyph>
<glyph name="mu" format="1">
  <advance width="1217"/>
  <unicode hex="03BC"/>
  <outline>
    <contour>
      <point x="157" y="-202" type="line"/>
      <point x="322" y="-202" type="line"/>
      <point x="322" y="31" type="line"/>
      <point x="377" y="-2"/>
      <point x="448" y="-23"/>
      <point x="540" y="-23" type="curve" smooth="yes"/>
      <point x="687" y="-23"/>
      <point x="801" y="30"/>
      <point x="878" y="135" type="curve"/>
      <point x="881" y="0" type="line"/>
      <point x="1051" y="0" type="line"/>
      <point x="1045" y="84"/>
      <point x="1043" y="158"/>
      <point x="1043" y="246" type="curve" smooth="yes"/>
      <point x="1043" y="1026" type="line"/>
      <point x="878" y="1026" type="line"/>
      <point x="878" y="436" type="line" smooth="yes"/>
      <point x="878" y="259"/>
      <point x="769" y="109"/>
      <point x="578" y="109" type="curve" smooth="yes"/>
      <point x="401" y="109"/>
      <point x="322" y="209"/>
      <point x="322" y="399" type="curve" smooth="yes"/>
      <point x="322" y="1026" type="line"/>
      <point x="157" y="1026" type="line"/>
    </contour>
  </outline>
</glyph>
<glyph name="endash" format="1">
  <advance width="1085"/>
  <unicode hex="2013"/>
  <outline>
    <contour>
      <point x="1084" y="626" type="line"/>
      <point x="-6" y="626" type="line"/>
      <point x="-6" y="489" type="line"/>
      <point x="1084" y="489" type="line"/>
    </contour>
  </outline>
</glyph>
<glyph name="emdash" format="1">
  <advance width="2171"/>
  <unicode hex="2014"/>
  <outline>
    <contour>
      <point x="2160" y="626" type="line"/>
      <point x="-3" y="626" type="line"/>
      <point x="-3" y="489" type="line"/>
      <point x="2160" y="489" type="line"/>
    </contour>
  </outline>
</glyph>
<glyph name="quotesinglbase" format="1">
  <advance width="553"/>
  <unicode hex="201A"/>
  <outline>
    <contour>
      <point x="125" y="-238" type="line"/>
      <point x="258" y="-238" type="line"/>
      <point x="412" y="201" type="line"/>
      <point x="231" y="201" type="line"/>
    </contour>
  </outline>
</glyph>
<glyph name="dagger" format="1">
  <advance width="1022"/>
  <unicode hex="2020"/>
  <outline>
    <contour>
      <point x="433" y="113" type="line"/>
      <point x="561" y="113" type="line"/>
      <point x="561" y="934" type="line"/>
      <point x="919" y="934" type="line"/>
      <point x="919" y="1066" type="line"/>
      <point x="575" y="1066" type="line"/>
      <point x="575" y="1451" type="line"/>
      <point x="433" y="1451" type="line"/>
      <point x="433" y="1066" type="line"/>
      <point x="107" y="1066" type="line"/>
      <point x="107" y="934" type="line"/>
      <point x="433" y="934" type="line"/>
    </contour>
  </outline>
</glyph>
<glyph name="daggerdbl" format="1">
  <advance width="1022"/>
  <unicode hex="2021"/>
  <outline>
    <contour>
      <point x="442" y="562" type="line"/>
      <point x="98" y="562" type="line"/>
      <point x="98" y="435" type="line"/>
      <point x="442" y="435" type="line"/>
      <point x="420" y="113" type="line"/>
      <point x="591" y="113" type="line"/>
      <point x="565" y="435" type="line"/>
      <point x="909" y="435" type="line"/>
      <point x="909" y="562" type="line"/>
      <point x="565" y="562" type="line"/>
      <point x="565" y="983" type="line"/>
      <point x="916" y="983" type="line"/>
      <point x="916" y="1115" type="line"/>
      <point x="572" y="1115" type="line"/>
      <point x="593" y="1451" type="line"/>
      <point x="422" y="1451" type="line"/>
      <point x="448" y="1115" type="line"/>
      <point x="104" y="1115" type="line"/>
      <point x="104" y="983" type="line"/>
      <point x="442" y="983" type="line"/>
    </contour>
  </outline>
</glyph>
<glyph name="bullet" format="1">
  <advance width="989"/>
  <unicode hex="2022"/>
  <outline>
    <contour>
      <point x="833" y="701" type="curve" smooth="yes"/>
      <point x="833" y="870"/>
      <point x="682" y="1010"/>
      <point x="498" y="1010" type="curve" smooth="yes"/>
      <point x="316" y="1010"/>
      <point x="157" y="866"/>
      <point x="157" y="694" type="curve" smooth="yes"/>
      <point x="157" y="526"/>
      <point x="306" y="385"/>
      <point x="493" y="385" type="curve" smooth="yes"/>
      <point x="677" y="385"/>
      <point x="833" y="529"/>
    </contour>
  </outline>
</glyph>
<glyph name="ellipsis" format="1">
  <advance width="1620"/>
  <unicode hex="2026"/>
  <outline>
    <contour>
      <point x="376" y="199" type="line"/>
      <point x="159" y="199" type="line"/>
      <point x="159" y="-11" type="line"/>
      <point x="376" y="-11" type="line"/>
    </contour>
    <contour>
      <point x="916" y="199" type="line"/>
      <point x="699" y="199" type="line"/>
      <point x="699" y="-11" type="line"/>
      <point x="916" y="-11" type="line"/>
    </contour>
    <contour>
      <point x="1456" y="199" type="line"/>
      <point x="1239" y="199" type="line"/>
      <point x="1239" y="-11" type="line"/>
      <point x="1456" y="-11" type="line"/>
    </contour>
  </outline>
</glyph>
<glyph name="fraction" format="1">
  <advance width="368"/>
  <unicode hex="2044"/>
  <outline>
    <contour>
      <point x="568" y="1436" type="line"/>
      <point x="-337" y="0" type="line"/>
      <point x="-186" y="0" type="line"/>
      <point x="717" y="1436" type="line"/>
    </contour>
  </outline>
</glyph>
<glyph name="foursuperior" format="1">
  <advance width="897"/>
  <unicode hex="2074"/>
  <outline>
    <contour>
      <point x="476" y="615" type="line"/>
      <point x="476" y="803" type="line"/>
      <point x="597" y="803" type="line"/>
      <point x="587" y="910" type="line"/>
      <point x="478" y="910" type="line"/>
      <point x="478" y="1412" type="line"/>
      <point x="344" y="1412" type="line"/>
      <point x="-22" y="894" type="line"/>
      <point x="-22" y="803" type="line"/>
      <point x="356" y="803" type="line"/>
      <point x="356" y="615" type="line"/>
    </contour>
    <contour>
      <point x="117" y="910" type="line"/>
      <point x="354" y="1244" type="line"/>
      <point x="354" y="1190"/>
      <point x="354" y="1139"/>
      <point x="354" y="910" type="curve"/>
    </contour>
  </outline>
</glyph>
<glyph name="partialdiff" format="1">
  <advance width="1167"/>
  <unicode hex="2202"/>
  <outline>
    <contour>
      <point x="495" y="111" type="curve" smooth="yes"/>
      <point x="346" y="111"/>
      <point x="252" y="232"/>
      <point x="252" y="417" type="curve" smooth="yes"/>
      <point x="252" y="660"/>
      <point x="408" y="869"/>
      <point x="609" y="869" type="curve" smooth="yes"/>
      <point x="747" y="869"/>
      <point x="846" y="768"/>
      <point x="885" y="655" type="curve"/>
      <point x="850" y="356"/>
      <point x="703" y="111"/>
    </contour>
    <contour>
      <point x="291" y="1304" type="line"/>
      <point x="367" y="1356"/>
      <point x="469" y="1399"/>
      <point x="565" y="1399" type="curve" smooth="yes"/>
      <point x="775" y="1399"/>
      <point x="903" y="1215"/>
      <point x="903" y="911" type="curve" smooth="yes"/>
      <point x="903" y="887"/>
      <point x="902" y="855"/>
      <point x="902" y="836" type="curve"/>
      <point x="824" y="940"/>
      <point x="717" y="1002"/>
      <point x="586" y="1002" type="curve" smooth="yes"/>
      <point x="307" y="1002"/>
      <point x="83" y="748"/>
      <point x="83" y="420" type="curve" smooth="yes"/>
      <point x="83" y="170"/>
      <point x="222" y="-24"/>
      <point x="492" y="-24" type="curve" smooth="yes"/>
      <point x="886" y="-24"/>
      <point x="1074" y="419"/>
      <point x="1074" y="852" type="curve" smooth="yes"/>
      <point x="1074" y="1321"/>
      <point x="888" y="1533"/>
      <point x="588" y="1533" type="curve" smooth="yes"/>
      <point x="472" y="1533"/>
      <point x="360" y="1495"/>
      <point x="280" y="1442" type="curve"/>
    </contour>
  </outline>
</glyph>
<glyph name="uni2206" format="1">
  <advance width="1314"/>
  <unicode hex="2206"/>
  <outline>
    <contour>
      <point x="1263" y="80" type="line"/>
      <point x="743" y="1429" type="line"/>
      <point x="561" y="1429" type="line"/>
      <point x="40" y="80" type="line"/>
      <point x="40" y="0" type="line"/>
      <point x="1263" y="0" type="line"/>
    </contour>
    <contour>
      <point x="269" y="162" type="line"/>
      <point x="615" y="1111" type="line"/>
      <point x="647" y="1218" type="line"/>
      <point x="681" y="1111" type="line"/>
      <point x="1033" y="162" type="line"/>
    </contour>
  </outline>
</glyph>
<glyph name="radical" format="1">
  <advance width="1314"/>
  <unicode hex="221A"/>
  <outline>
    <contour>
      <point x="1082" y="1596" type="line"/>
      <point x="709" y="217" type="line"/>
      <point x="669" y="41" type="line"/>
      <point x="611" y="214" type="line"/>
      <point x="382" y="825" type="line"/>
      <point x="87" y="774" type="line"/>
      <point x="107" y="662" type="line"/>
      <point x="279" y="690" type="line"/>
      <point x="611" y="-153" type="line"/>
      <point x="746" y="-153" type="line"/>
      <point x="1212" y="1596" type="line"/>
    </contour>
  </outline>
</glyph>
<glyph name="approxequal" format="1">
  <advance width="1351"/>
  <unicode hex="2248"/>
  <outline>
    <contour>
      <point x="1077" y="546" type="line"/>
      <point x="1038" y="441"/>
      <point x="988" y="380"/>
      <point x="904" y="380" type="curve" smooth="yes"/>
      <point x="847" y="380"/>
      <point x="781" y="420"/>
      <point x="707" y="460" type="curve" smooth="yes"/>
      <point x="629" y="503"/>
      <point x="544" y="546"/>
      <point x="452" y="546" type="curve" smooth="yes"/>
      <point x="299" y="546"/>
      <point x="193" y="448"/>
      <point x="154" y="289" type="curve"/>
      <point x="268" y="261" type="line"/>
      <point x="297" y="361"/>
      <point x="352" y="426"/>
      <point x="449" y="426" type="curve" smooth="yes"/>
      <point x="505" y="426"/>
      <point x="564" y="398"/>
      <point x="631" y="359" type="curve" smooth="yes"/>
      <point x="741" y="295"/>
      <point x="818" y="262"/>
      <point x="898" y="262" type="curve" smooth="yes"/>
      <point x="1061" y="262"/>
      <point x="1153" y="365"/>
      <point x="1187" y="518" type="curve"/>
    </contour>
    <contour>
      <point x="1075" y="918" type="line"/>
      <point x="1038" y="811"/>
      <point x="986" y="752"/>
      <point x="902" y="752" type="curve" smooth="yes"/>
      <point x="850" y="752"/>
      <point x="788" y="778"/>
      <point x="700" y="830" type="curve" smooth="yes"/>
      <point x="609" y="883"/>
      <point x="535" y="917"/>
      <point x="450" y="917" type="curve" smooth="yes"/>
      <point x="296" y="917"/>
      <point x="188" y="819"/>
      <point x="152" y="661" type="curve"/>
      <point x="267" y="634" type="line"/>
      <point x="296" y="734"/>
      <point x="350" y="799"/>
      <point x="446" y="799" type="curve" smooth="yes"/>
      <point x="502" y="799"/>
      <point x="560" y="770"/>
      <point x="627" y="731" type="curve" smooth="yes"/>
      <point x="736" y="667"/>
      <point x="812" y="634"/>
      <point x="896" y="634" type="curve" smooth="yes"/>
      <point x="1058" y="634"/>
      <point x="1152" y="736"/>
      <point x="1185" y="890" type="curve"/>
    </contour>
  </outline>
</glyph>
<glyph name="lozenge" format="1">
  <advance width="1248"/>
  <unicode hex="25CA"/>
  <outline>
    <contour>
      <point x="615" y="98" type="line"/>
      <point x="552" y="211" type="line"/>
      <point x="261" y="713" type="line"/>
      <point x="560" y="1207" type="line"/>
      <point x="625" y="1324" type="line"/>
      <point x="686" y="1213" type="line"/>
      <point x="979" y="711" type="line"/>
      <point x="680" y="214" type="line"/>
    </contour>
    <contour>
      <point x="677" y="1470" type="line"/>
      <point x="570" y="1470" type="line"/>
      <point x="112" y="711" type="line"/>
      <point x="562" y="-45" type="line"/>
      <point x="668" y="-45" type="line"/>
      <point x="1130" y="712" type="line"/>
    </contour>
  </outline>
</glyph>
